<svg xmlns="http://www.w3.org/2000/svg" xmlns:xlink="http://www.w3.org/1999/xlink" width="0" height="0" viewBox="0 0 0 0" style="position: absolute">
  <defs>
    <symbol id="logotype" data-name="logotype" viewBox="0 0 568 680">
      <path d="m507.3 0h-446.6a60.7 60.7 0 0 0 -60.7 60.7v558.6a60.7 60.7 0 0 0 60.7 60.7h446.6a60.7 60.7 0 0 0 60.7-60.7v-558.6a60.7 60.7 0 0 0 -60.7-60.7zm0 32a28.8 28.8 0 0 1 28.7 28.7v558.6a28.8 28.8 0 0 1 -28.7 28.7h-446.6a28.8 28.8 0 0 1 -28.7-28.7v-558.6a28.8 28.8 0 0 1 28.7-28.7zm-438 469.5h19.7v13.7c5.7-10.4 16.7-18.7 29.5-15.6v18.9c-38.1-9.7-27 45-28.5 65.5h-20.7zm120.2 72h-.5c-8.8 14.7-32.2 15.9-46 7-11.4-6.4-14.4-25.5-5.4-34.8 12.7-12.8 34.4-12.8 51.5-13.3 1.5-22.6-30.6-20.2-41.4-7.7l-10.7-12.6c13.2-12.7 37-16.5 53.1-9.9 28.7 10.2 16 59.5 18.7 81.8h-19.3zm-.4-27.1c-8 0-17.5-.2-25.2 2.3-12.6 2.3-15.4 18.8-1.6 21.2 16.2 3.4 28.7-7.2 26.8-23.5zm136.3 37.6h-19.6v-12.3c-22.2 31.9-72.9 7.6-69.4-29.3-2.8-36.2 44.7-58.9 68.3-30.4v-58h20.7zm-68-41.6c-.2 35.6 47.3 35.3 48 .4s-48-36.1-48-.4zm99.1-69c-.3-16.1 26.8-16.2 26.5 0s-26.8 16.2-26.5 0zm2.9 28.1h20.7v82.5h-20.7zm49.6 40.9c-.8-32.8 33.6-51.3 62.4-40.2 36.6 12.9 36.1 67.7 0 81-28.7 11.7-63.4-8.4-62.4-40.8zm20.9 0c-.1 35.6 48 35.6 47.9 0s-48.4-35.1-47.9 0zm30.1-272.4c11.7 3.6 21.8 11 30.6 22s13 25.8 13 44c0 16.1-2.6 29.6-7.9 40.5a72.3 72.3 0 0 1 -20.9 26.6 80.9 80.9 0 0 1 -29.9 14.5 138.1 138.1 0 0 1 -34.7 4.4h-112.5v-294h102.1a195.5 195.5 0 0 1 31.2 2.7 88.8 88.8 0 0 1 30.5 10.8c9.3 5.4 16.9 13.3 23 23.7s9.2 24 9.2 40.9-3.1 28.8-9.4 39a64.6 64.6 0 0 1 -24.7 23.7zm-78.3-67.5v39h15.1c5.8 0 10.5-1.6 14-4.8s5.3-8.5 5.3-15.7-1.9-10.8-5.5-13.9a20.9 20.9 0 0 0 -13.8-4.6zm0 103v42h15.8c6.3 0 11.5-1.8 15.6-5.5s6-8.8 6-15.1-2.2-12.8-6.7-16.2a23.3 23.3 0 0 0 -14.9-5.2zm-217.7-177.5v32.8c8.2 0 12.1 7.5 12.1 13.9 0 17.9-5.4 15-5.4 20.5a6.9 6.9 0 0 0 2.9 5.4c4.1-2.2 4.6 1.1 6 1.3s7.4 0 7.7 5.5-1.9 26.9-1.9 30.1-.6 8.7-1.6 8.7c-.6 3.5-2.2 23.4-2.2 25.9s-1.5 2-2 6.1-.9 6.4-.6 8.3 1 2 1 4.9-1.6 4.1-1.6 6.7c0 5.1-1.3 8.3-1.3 10.2s-.3 5.3-.3 5.3a20.3 20.3 0 0 1 2.8 2.4c1 1 .6 2.4.6 4s-.1 13.2 0 14.9-1 3.6.5 4.1c6.6 2.6 14.7 5.1 14.9 15.2.2 5.2 1.4 17.2-.5 24.2s-6.4 11.1-12.4 10.9-11.6-1.1-18.6-1.1-12.9.8-19 1.1-10.5-3.9-12.4-10.9-.6-19-.5-24.2c.2-10.1 8.4-12.6 14.9-15.2 1.5-.5.4-2.7.5-4.1s0-13.3 0-14.9-.1-1-.1-1.5l-12.1 4.6-71.4 32.3a99.4 99.4 0 0 0 12 29.3 89.7 89.7 0 0 0 20.6 23.2 94.2 94.2 0 0 0 27.2 15.2 92.9 92.9 0 0 0 31.9 5.4c17.2 0 32-2.6 44.4-7.7a77.4 77.4 0 0 0 30.4-21.8c8-9.4 13.8-20.8 17.5-34.2a163.4 163.4 0 0 0 5.7-44.6v-192.2zm-12 223.5 2.4 3h19.6l2.5-3c1.4 0 8.4-.8 8.7 5.3.1 1.9.4 5.8.3 9.2-.3 9.2.5 12.5-4.5 13.3-2.6.4-3.9 1.7-5.6-1.2-.6-1.1-8-1.3-11.2-1.3s-10.6.2-11.1 1.3c-1.8 2.9-3.1 1.6-5.6 1.2-5-.8-4.3-4.1-4.6-13.3-.1-3.4.2-7.3.3-9.2.3-6.1 7.4-5.3 8.8-5.3zm24.1-176.5a61.4 61.4 0 0 1 -.5 8.3 63.2 63.2 0 0 0 -1.9-10c-3.9-2.4-15.3-2.4-19.3 0a53.6 53.6 0 0 0 -1.9 10 59.2 59.2 0 0 1 -.6-8.3c0-3.6 3.6-10.2 12.1-10.3 7.4 0 12.1 5.4 12.1 10.3z"/>
    </symbol>
    <symbol id="bullhorn" data-name="bullhorn" viewBox="0 0 576 512">
      <path d="M576 240c0-23.63-12.95-44.04-32-55.12V32.01C544 23.26 537.02 0 512 0c-7.12 0-14.19 2.38-19.98 7.02l-85.03 68.03C364.28 109.19 310.66 128 256 128H64c-35.35 0-64 28.65-64 64v96c0 35.35 28.65 64 64 64h33.7c-1.39 10.48-2.18 21.14-2.18 32 0 39.77 9.26 77.35 25.56 110.94 5.19 10.69 16.52 17.06 28.4 17.06h74.28c26.05 0 41.69-29.84 25.9-50.56-16.4-21.52-26.15-48.36-26.15-77.44 0-11.11 1.62-21.79 4.41-32H256c54.66 0 108.28 18.81 150.98 52.95l85.03 68.03a32.023 32.023 0 0 0 19.98 7.02c24.92 0 32-22.78 32-32V295.13C563.05 284.04 576 263.63 576 240zm-96 141.42l-33.05-26.44C392.95 311.78 325.12 288 256 288v-96c69.12 0 136.95-23.78 190.95-66.98L480 98.58v282.84z"></path>
    </symbol>
    <symbol id="chevron-down" data-name="chevron-down" viewBox="0 0 448 512">
      <path d="M207.029 381.476L12.686 187.132c-9.373-9.373-9.373-24.569 0-33.941l22.667-22.667c9.357-9.357 24.522-9.375 33.901-.04L224 284.505l154.745-154.021c9.379-9.335 24.544-9.317 33.901.04l22.667 22.667c9.373 9.373 9.373 24.569 0 33.941L240.971 381.476c-9.373 9.372-24.569 9.372-33.942 0z"></path>
    </symbol>
  </defs>
</svg>
