<svg xmlns="http://www.w3.org/2000/svg" xmlns:xlink="http://www.w3.org/1999/xlink" width="0" height="0" viewBox="0 0 0 0" style="position: absolute">
  <defs>
    <symbol id="logotype" data-name="logotype" viewBox="0 0 568 680">
      <path d="M507.3,0H60.7A60.7,60.7,0,0,0,0,60.7V619.3A60.7,60.7,0,0,0,60.7,680H507.3A60.7,60.7,0,0,0,568,619.3V60.7A60.7,60.7,0,0,0,507.3,0Zm0,32A28.8,28.8,0,0,1,536,60.7V619.3A28.8,28.8,0,0,1,507.3,648H60.7A28.8,28.8,0,0,1,32,619.3V60.7A28.8,28.8,0,0,1,60.7,32H507.3M69.3,501.5H89v13.7c5.7-10.4,16.7-18.7,29.5-15.6v18.9c-38.1-9.7-27,45-28.5,65.5H69.3Zm120.2,72H189c-8.8,14.7-32.2,15.9-46,7-11.4-6.4-14.4-25.5-5.4-34.8,12.7-12.8,34.4-12.8,51.5-13.3,1.5-22.6-30.6-20.2-41.4-7.7L137,512.1c13.2-12.7,37-16.5,53.1-9.9,28.7,10.2,16,59.5,18.7,81.8H189.5Zm-.4-27.1c-8,0-17.5-.2-25.2,2.3-12.6,2.3-15.4,18.8-1.6,21.2C178.5,573.3,191,562.7,189.1,546.4ZM325.4,584H305.8V571.7c-22.2,31.9-72.9,7.6-69.4-29.3-2.8-36.2,44.7-58.9,68.3-30.4V454h20.7Zm-68-41.6c-.2,35.6,47.3,35.3,48,.4S257.4,506.7,257.4,542.4Zm99.1-69c-.3-16.1,26.8-16.2,26.5,0S356.2,489.6,356.5,473.4Zm2.9,28.1h20.7V584H359.4ZM409,542.4c-.8-32.8,33.6-51.3,62.4-40.2,36.6,12.9,36.1,67.7,0,81C442.7,594.9,408,574.8,409,542.4Zm20.9,0c-.1,35.6,48,35.6,47.9,0S429.4,507.3,429.9,542.4ZM460.4,270c11.6,3.6,21.8,11,30.5,22S504,317.8,504,336c0,16.1-2.6,29.6-7.9,40.5s-12.2,19.8-21,26.6a80.1,80.1,0,0,1-29.9,14.5,137.3,137.3,0,0,1-34.6,4.4H298V128H400.2a193.3,193.3,0,0,1,31.1,2.7,88.6,88.6,0,0,1,30.6,10.8c9.2,5.4,16.9,13.3,23,23.7s9.1,24,9.1,40.9-3.1,28.8-9.3,39A65.3,65.3,0,0,1,460,268.8Zm-78.9-67.7v38.6h14.9c5.9,0,10.5-1.5,14-4.7s5.2-8.4,5.2-15.6-1.9-10.7-5.4-13.7a20.9,20.9,0,0,0-13.8-4.6Zm0,102.6v41.9h15.8c6.3,0,11.5-1.8,15.6-5.5s6-8.7,6-15-2.2-12.8-6.7-16.3a23.8,23.8,0,0,0-14.9-5.1ZM142.4,178.6h0l5.3-4.6c1.1-.6,2.5-.6,2.7,1.1s.2,15.7,0,16.5-1.7,1.7-2.7,1.1l-5.3-4.6h-.6c-2.7,0-3.3-6-1.7-8.5.5-9.1,6.3-24.8,23.9-24.8v6C154.1,160.8,143.5,166.6,142.4,178.6ZM164,128v32.8c8.2,0,12.1,7.5,12.1,13.9,0,17.9-5.4,15-5.4,20.5a6.9,6.9,0,0,0,2.9,5.4c4.1-2.2,4.6,1.1,6,1.3s7.4,0,7.7,5.5-1.9,26.9-1.9,30.1-.6,8.7-1.6,8.7c-.6,3.5-2.2,23.4-2.2,25.9s-1.5,2-2,6.1-.9,6.4-.6,8.3,1,2,1,4.9-1.6,4.1-1.6,6.7c0,5.1-1.3,8.3-1.3,10.2s-.3,5.3-.3,5.3a20.3,20.3,0,0,1,2.8,2.4c1,1,.6,2.4.6,4s-.1,13.2,0,14.9-1,3.6.5,4.1c6.6,2.6,14.7,5.1,14.9,15.2.2,5.2,1.4,17.2-.5,24.2s-6.4,11.1-12.4,10.9-11.6-1.1-18.6-1.1-12.9.8-19,1.1-10.5-3.9-12.4-10.9-.6-19-.5-24.2c.2-10.1,8.4-12.6,14.9-15.2,1.5-.5.4-2.7.5-4.1s0-13.3,0-14.9-.1-1-.1-1.5l-12.1,4.6L64,355.4a99.4,99.4,0,0,0,12,29.3,89.7,89.7,0,0,0,20.6,23.2,94.2,94.2,0,0,0,27.2,15.2,92.9,92.9,0,0,0,31.9,5.4c17.2,0,32-2.6,44.4-7.7A77.4,77.4,0,0,0,230.5,399c8-9.4,13.8-20.8,17.5-34.2a163.4,163.4,0,0,0,5.7-44.6V128ZM151.9,350.4l2.5,3.1H174l2.5-3.1c1.4,0,8.4-.7,8.7,5.3.1,2,.4,5.8.3,9.3-.3,9.1.5,12.4-4.6,13.2-2.5.5-3.8,1.8-5.6-1.2-.5-1.1-7.9-1.3-11.1-1.3s-10.6.2-11.1,1.3c-1.8,3-3.1,1.7-5.6,1.2-5-.8-4.3-4.1-4.6-13.2-.1-3.5.2-7.3.3-9.3C143.5,349.7,150.5,350.4,151.9,350.4Zm17.7-172.6a1.1,1.1,0,0,0-1,1,1,1,0,0,0,1,1,.9.9,0,0,0,1-1A1,1,0,0,0,169.6,177.8Zm6.5-3.1a59.2,59.2,0,0,1-.5,8.3,65.4,65.4,0,0,0-1.9-10c-3.9-2.4-15.3-2.4-19.3,0a55.2,55.2,0,0,0-1.9,10,45.6,45.6,0,0,1-.6-8.3c0-3.5,3.6-10.2,12.1-10.3h0C171.3,164.4,176.1,169.8,176.1,174.7Zm-17.7,3.1a1.1,1.1,0,0,1,1,1,1,1,0,0,1-1,1,.9.9,0,0,1-1-1A1,1,0,0,1,158.4,177.8Zm2.1,11.6a9.9,9.9,0,0,1,7,.1C165.9,190.8,161.8,190.4,160.5,189.4Z"/>
    </symbol>
  </defs>
</svg>
